<svg data-v-423bf9ae="" xmlns="http://www.w3.org/2000/svg" viewBox="0 0 443 91" class="iconLeftSlogan"><!----><!----><!----><g data-v-423bf9ae="" id="af1872b2-3425-49e4-8d62-599f811cfe5b" fill="black" transform="matrix(5.272407679843658,0,0,5.272407679843658,107.7845532659743,-18.189806031612875)"><path d="M0.42 4.78L0.42 4.78L0.42 4.35Q0.42 4.14 0.63 4.14L0.63 4.14L7.64 4.14Q7.83 4.14 7.91 4.07L7.91 4.07L7.99 4.00Q8.07 3.95 8.11 3.95L8.11 3.95Q8.22 3.95 8.29 4.07L8.29 4.07L9.40 5.97Q9.44 6.04 9.44 6.10L9.44 6.10Q9.44 6.19 9.32 6.27L9.32 6.27L8.74 6.58Q8.67 6.62 8.61 6.62L8.61 6.62Q8.52 6.62 8.44 6.51L8.44 6.51L8.39 6.43Q7.65 5.14 5.89 5.14L5.89 5.14L3.81 5.14L3.81 8.56L5.12 8.56Q6.41 8.56 6.45 7.62L6.45 7.62L6.45 7.53Q6.45 7.31 6.66 7.31L6.66 7.31L7.08 7.31Q7.29 7.31 7.29 7.53L7.29 7.53L7.29 10.71Q7.29 10.92 7.08 10.92L7.08 10.92L6.66 10.92Q6.45 10.92 6.45 10.71L6.45 10.71L6.45 10.62Q6.41 9.68 5.12 9.68L5.12 9.68L3.90 9.68L3.90 12.47Q3.90 13.75 4.84 13.80L4.84 13.80L4.94 13.80Q5.15 13.80 5.15 14.01L5.15 14.01L5.15 14.43Q5.15 14.64 4.94 14.64L4.94 14.64L0.63 14.64Q0.42 14.64 0.42 14.43L0.42 14.43L0.42 14.01Q0.42 13.80 0.63 13.80L0.63 13.80L0.72 13.80Q1.66 13.75 1.66 12.47L1.66 12.47L1.66 6.32Q1.66 4.98 0.64 4.98L0.64 4.98L0.63 4.98Q0.42 4.98 0.42 4.78ZM9.01 11.08L9.01 11.08Q9.01 10.33 9.20 9.71Q9.39 9.10 9.71 8.69Q10.03 8.29 10.46 8.01Q10.90 7.73 11.36 7.61Q11.83 7.49 12.35 7.49L12.35 7.49Q12.88 7.49 13.35 7.67Q13.83 7.85 14.16 8.13Q14.50 8.42 14.74 8.78Q14.98 9.14 15.10 9.50Q15.22 9.86 15.22 10.19L15.22 10.19Q15.22 10.31 15.11 10.36L15.11 10.36L11.05 12.14Q11.31 12.79 11.85 13.22Q12.39 13.64 13.15 13.64L13.15 13.64Q13.62 13.64 14.10 13.38Q14.57 13.13 14.93 12.61L14.93 12.61Q14.97 12.55 15.05 12.55L15.05 12.55Q15.14 12.55 15.61 12.82L15.61 12.82Q15.66 12.86 15.66 12.93L15.66 12.93Q15.66 13.02 15.57 13.18L15.57 13.18Q14.69 14.81 12.77 14.81L12.77 14.81Q11.64 14.81 10.77 14.30Q9.91 13.79 9.46 12.94Q9.01 12.10 9.01 11.08ZM11.09 9.05Q10.75 9.50 10.75 10.20Q10.75 10.90 10.88 11.27L10.88 11.27L13.13 10.13Q13.13 9.47 12.81 9.03Q12.49 8.59 12.00 8.59L12.00 8.59Q11.44 8.59 11.09 9.05ZM16.13 11.08L16.13 11.08Q16.13 10.33 16.32 9.71Q16.52 9.10 16.83 8.69Q17.15 8.29 17.59 8.01Q18.02 7.73 18.49 7.61Q18.96 7.49 19.47 7.49L19.47 7.49Q20.00 7.49 20.48 7.67Q20.95 7.85 21.29 8.13Q21.62 8.42 21.86 8.78Q22.11 9.14 22.23 9.50Q22.35 9.86 22.35 10.19L22.35 10.19Q22.35 10.31 22.23 10.36L22.23 10.36L18.17 12.14Q18.44 12.79 18.97 13.22Q19.51 13.64 20.27 13.64L20.27 13.64Q20.74 13.64 21.22 13.38Q21.70 13.13 22.05 12.61L22.05 12.61Q22.09 12.55 22.17 12.55L22.17 12.55Q22.26 12.55 22.73 12.82L22.73 12.82Q22.78 12.86 22.78 12.93L22.78 12.93Q22.78 13.02 22.70 13.18L22.70 13.18Q21.81 14.81 19.89 14.81L19.89 14.81Q18.76 14.81 17.90 14.30Q17.03 13.79 16.58 12.94Q16.13 12.10 16.13 11.08ZM18.21 9.05Q17.87 9.50 17.87 10.20Q17.87 10.90 18.00 11.27L18.00 11.27L20.25 10.13Q20.25 9.47 19.93 9.03Q19.61 8.59 19.13 8.59L19.13 8.59Q18.56 8.59 18.21 9.05ZM23.26 11.13L23.26 11.13Q23.26 10.19 23.53 9.47Q23.80 8.75 24.26 8.32Q24.73 7.90 25.30 7.68Q25.87 7.46 26.53 7.46L26.53 7.46Q27.60 7.46 28.35 8.11L28.35 8.11L28.35 7.23Q28.35 6.88 28.32 6.66Q28.30 6.43 28.22 6.18Q28.14 5.93 27.97 5.78Q27.79 5.64 27.51 5.61L27.51 5.61Q27.34 5.59 27.35 5.43L27.35 5.43L27.35 4.96Q27.35 4.87 27.40 4.84Q27.44 4.81 27.56 4.77L27.56 4.77Q29.11 4.25 30.19 3.47L30.19 3.47Q30.23 3.45 30.25 3.45L30.25 3.45L30.28 3.45Q30.30 3.45 30.30 3.47L30.30 3.47L30.30 12.05Q30.30 12.34 30.34 12.54Q30.37 12.75 30.46 12.95Q30.54 13.15 30.71 13.27Q30.88 13.39 31.12 13.42L31.12 13.42Q31.30 13.44 31.29 13.60L31.29 13.60L31.29 14.08Q31.29 14.26 31.09 14.26L31.09 14.26Q30.45 14.26 29.93 14.35Q29.41 14.44 29.18 14.53Q28.95 14.61 28.51 14.80L28.51 14.80Q28.46 14.83 28.39 14.83L28.39 14.83L28.36 14.83Q28.33 14.83 28.34 14.78L28.34 14.78L28.50 13.54Q28.42 13.72 28.29 13.90Q28.16 14.09 27.92 14.31Q27.68 14.54 27.27 14.68Q26.87 14.83 26.36 14.83L26.36 14.83Q25.96 14.83 25.55 14.71Q25.14 14.59 24.72 14.30Q24.30 14.01 23.98 13.60Q23.66 13.19 23.46 12.55Q23.26 11.91 23.26 11.13ZM25.06 10.68L25.06 10.68Q25.06 12.01 25.59 12.80Q26.13 13.59 27.00 13.59L27.00 13.59Q27.29 13.59 27.53 13.47Q27.77 13.34 27.92 13.17Q28.06 13.00 28.16 12.83Q28.27 12.65 28.31 12.53L28.31 12.53L28.34 12.41L28.34 10.11Q28.26 9.42 27.86 8.98Q27.45 8.53 26.78 8.53L26.78 8.53Q25.06 8.53 25.06 10.68ZM31.57 4.74L31.57 4.74L31.57 4.31Q31.57 4.11 31.78 4.11L31.78 4.11L36.07 4.11Q36.29 4.11 36.29 4.31L36.29 4.31L36.29 4.74Q36.29 4.95 36.07 4.95L36.07 4.95Q35.64 4.95 35.31 5.23Q34.99 5.50 34.99 5.92L34.99 5.92Q34.99 6.12 35.05 6.28L35.05 6.28L37.35 12.67L39.25 6.91L39.02 6.28Q38.75 5.54 38.63 5.35L38.63 5.35Q38.38 4.95 37.99 4.95L37.99 4.95Q37.78 4.95 37.78 4.74L37.78 4.74L37.78 4.31Q37.78 4.11 37.99 4.11L37.99 4.11L42.28 4.11Q42.49 4.11 42.49 4.31L42.49 4.31L42.49 4.74Q42.49 4.95 42.28 4.95L42.28 4.95L41.92 4.95Q41.64 4.95 41.40 5.17Q41.15 5.39 41.15 5.76L41.15 5.76Q41.15 5.93 41.24 6.20L41.24 6.20L43.56 12.67L45.67 6.28Q45.73 6.10 45.73 5.93L45.73 5.93Q45.73 5.51 45.41 5.23Q45.09 4.95 44.65 4.95L44.65 4.95Q44.43 4.95 44.43 4.74L44.43 4.74L44.43 4.31Q44.43 4.11 44.65 4.11L44.65 4.11L48.13 4.11Q48.34 4.11 48.34 4.31L48.34 4.31L48.34 4.74Q48.34 4.95 48.13 4.95Q47.91 4.95 47.76 5.02Q47.61 5.10 47.49 5.31Q47.36 5.53 47.30 5.66Q47.25 5.79 47.13 6.15L47.13 6.15Q47.09 6.23 47.08 6.28L47.08 6.28L44.20 14.47Q44.14 14.64 43.96 14.64L43.96 14.64L42.28 14.64Q42.10 14.64 42.04 14.47L42.04 14.47L39.97 8.85L37.99 14.47Q37.93 14.64 37.75 14.64L37.75 14.64L36.07 14.64Q35.89 14.64 35.83 14.47L35.83 14.47L32.81 6.28Q32.54 5.54 32.42 5.35L32.42 5.35Q32.18 4.95 31.78 4.95L31.78 4.95Q31.57 4.95 31.57 4.74ZM47.27 11.08L47.27 11.08Q47.27 10.33 47.46 9.71Q47.65 9.10 47.97 8.69Q48.29 8.29 48.72 8.01Q49.16 7.73 49.63 7.61Q50.09 7.49 50.61 7.49L50.61 7.49Q51.14 7.49 51.61 7.67Q52.09 7.85 52.42 8.13Q52.76 8.42 53.00 8.78Q53.25 9.14 53.36 9.50Q53.48 9.86 53.48 10.19L53.48 10.19Q53.48 10.31 53.37 10.36L53.37 10.36L49.31 12.14Q49.57 12.79 50.11 13.22Q50.65 13.64 51.41 13.64L51.41 13.64Q51.88 13.64 52.36 13.38Q52.83 13.13 53.19 12.61L53.19 12.61Q53.23 12.55 53.31 12.55L53.31 12.55Q53.40 12.55 53.87 12.82L53.87 12.82Q53.92 12.86 53.92 12.93L53.92 12.93Q53.92 13.02 53.83 13.18L53.83 13.18Q52.95 14.81 51.03 14.81L51.03 14.81Q49.90 14.81 49.03 14.30Q48.17 13.79 47.72 12.94Q47.27 12.10 47.27 11.08ZM49.35 9.05Q49.01 9.50 49.01 10.20Q49.01 10.90 49.14 11.27L49.14 11.27L51.39 10.13Q51.39 9.47 51.07 9.03Q50.75 8.59 50.26 8.59L50.26 8.59Q49.70 8.59 49.35 9.05ZM54.27 14.43L54.27 14.43L54.27 14.01Q54.27 13.80 54.48 13.80L54.48 13.80Q54.97 13.79 55.24 13.43L55.24 13.43Q55.49 13.07 55.49 12.52L55.49 12.52Q55.49 12.50 55.49 12.47L55.49 12.47L55.49 7.23Q55.49 6.88 55.47 6.66Q55.45 6.43 55.37 6.18Q55.30 5.93 55.12 5.78Q54.94 5.64 54.67 5.61L54.67 5.61Q54.49 5.59 54.50 5.43L54.50 5.43L54.50 4.96Q54.50 4.87 54.55 4.84Q54.59 4.81 54.70 4.77L54.70 4.77Q56.26 4.25 57.33 3.47L57.33 3.47Q57.37 3.45 57.39 3.45L57.39 3.45L57.43 3.45Q57.45 3.45 57.46 3.47L57.46 3.47L57.46 12.47Q57.46 13.06 57.73 13.43Q58.00 13.80 58.49 13.80L58.49 13.80Q58.70 13.80 58.70 14.01L58.70 14.01L58.70 14.43Q58.70 14.64 58.49 14.64L58.49 14.64L54.48 14.64Q54.27 14.64 54.27 14.43ZM59.12 14.43L59.12 14.43L59.12 14.01Q59.12 13.80 59.33 13.80L59.33 13.80Q59.83 13.79 60.09 13.43L60.09 13.43Q60.35 13.07 60.35 12.52L60.35 12.52Q60.35 12.50 60.35 12.47L60.35 12.47L60.35 7.23Q60.35 6.88 60.32 6.66Q60.30 6.43 60.22 6.18Q60.15 5.93 59.97 5.78Q59.79 5.64 59.52 5.61L59.52 5.61Q59.34 5.59 59.36 5.43L59.36 5.43L59.36 4.96Q59.36 4.87 59.40 4.84Q59.45 4.81 59.55 4.77L59.55 4.77Q61.11 4.25 62.19 3.47L62.19 3.47Q62.23 3.45 62.25 3.45L62.25 3.45L62.28 3.45Q62.30 3.45 62.32 3.47L62.32 3.47L62.32 12.47Q62.32 13.06 62.58 13.43Q62.85 13.80 63.34 13.80L63.34 13.80Q63.55 13.80 63.55 14.01L63.55 14.01L63.55 14.43Q63.55 14.64 63.34 14.64L63.34 14.64L59.33 14.64Q59.12 14.64 59.12 14.43Z"></path></g><!----><g data-v-423bf9ae="" id="c9a47259-e9d9-4ff7-9928-f035f7b6d601" transform="matrix(1.0285596800608532,0,0,1.0285596800608532,-6.17798400304266,-6.178498000380337)" stroke="none" fill="black"><circle cx="17.188" cy="82.813" r="10.938"></circle><path d="M71.875 82.813V93.75H93.75V82.813c0-42.284-34.278-76.563-76.563-76.563H6.25v21.875h10.938c30.203 0 54.687 24.484 54.687 54.688z"></path><path d="M39.063 82.813V93.75h21.875V82.813c0-24.162-19.588-43.75-43.75-43.75H6.25v21.875h10.938c12.081 0 21.875 9.793 21.875 21.875z"></path></g><!----><g data-v-423bf9ae="" id="542b8ed8-5812-4890-a478-c79eb064b19b" fill="black" transform="matrix(0.773253774239698,0,0,0.773253774239698,109.71286975681534,55.60018552120343)"><path d="M0.37 10.25L0.37 10.25Q0.37 9.73 0.48 9.21Q0.58 8.68 0.78 8.17Q0.98 7.66 1.31 7.22Q1.64 6.77 2.05 6.44Q2.47 6.10 3.02 5.90Q3.58 5.71 4.22 5.71L4.22 5.71Q5.63 5.71 6.54 6.39L6.54 6.39L6.33 8.70L6.01 8.64L5.80 6.87Q5.21 6.09 3.90 6.09L3.90 6.09Q2.75 6.09 1.92 7.19Q1.09 8.30 1.09 10.00L1.09 10.00Q1.09 11.92 1.90 12.97Q2.70 14.03 4.18 14.03L4.18 14.03Q4.91 14.03 5.60 13.65Q6.29 13.28 6.76 12.74L6.76 12.74L6.92 12.99Q6.75 13.25 6.46 13.51Q6.17 13.77 5.79 14.02Q5.40 14.27 4.89 14.42Q4.39 14.57 3.86 14.57L3.86 14.57Q2.29 14.57 1.33 13.40Q0.37 12.22 0.37 10.25ZM16.41 6.18L16.41 10.11L17.96 10.11Q18.65 9.86 19.11 9.28Q19.56 8.70 19.56 8.02L19.56 8.02Q19.56 7.11 18.95 6.63Q18.33 6.15 17.24 6.15L17.24 6.15L16.41 6.18ZM17.79 14.40L14.59 14.40L14.64 14.11L15.71 13.90L15.71 6.51L14.62 6.37L14.68 6.13Q16.50 5.83 17.58 5.83L17.58 5.83Q18.35 5.83 18.96 6.05Q19.56 6.27 19.94 6.73Q20.32 7.19 20.32 7.83L20.32 7.83Q20.32 8.57 19.89 9.14Q19.46 9.72 18.43 10.23L18.43 10.23L18.43 10.23L19.75 12.19Q20.46 13.23 20.81 13.58Q21.15 13.92 21.53 14.05L21.53 14.05L21.86 14.16L21.82 14.42Q21.53 14.52 21.18 14.52L21.18 14.52Q20.90 14.52 20.64 14.40Q20.39 14.28 20.15 14.01Q19.91 13.75 19.72 13.48Q19.54 13.22 19.26 12.77L19.26 12.77L17.88 10.49L16.41 10.49L16.41 13.95L17.86 14.08L17.79 14.40ZM30.33 9.75L30.33 9.75Q30.33 11.03 30.69 12.01Q31.06 13.00 31.77 13.57Q32.49 14.14 33.47 14.14L33.47 14.14Q34.04 14.14 34.54 13.92Q35.03 13.70 35.37 13.33Q35.72 12.96 35.96 12.49Q36.20 12.01 36.32 11.50Q36.44 10.99 36.44 10.48L36.44 10.48Q36.44 8.50 35.58 7.29Q34.73 6.07 33.28 6.07L33.28 6.07Q32.70 6.07 32.21 6.28Q31.72 6.49 31.38 6.85Q31.04 7.21 30.80 7.69Q30.56 8.16 30.44 8.69Q30.33 9.21 30.33 9.75ZM29.58 10.16L29.58 10.16Q29.58 8.16 30.68 6.92Q31.77 5.69 33.61 5.69L33.61 5.69Q34.75 5.69 35.56 6.27Q36.38 6.86 36.78 7.84Q37.17 8.83 37.17 10.11L37.17 10.11Q37.17 10.75 37.02 11.38Q36.87 12.00 36.55 12.58Q36.22 13.17 35.76 13.61Q35.30 14.05 34.62 14.32Q33.95 14.58 33.14 14.58L33.14 14.58Q32.09 14.58 31.26 13.98Q30.44 13.37 30.01 12.37Q29.58 11.37 29.58 10.16ZM44.91 13.60L44.91 13.60L45.11 11.66L45.44 11.71L45.63 13.21Q45.86 13.64 46.39 13.89Q46.92 14.14 47.52 14.14L47.52 14.14Q48.20 14.14 48.68 13.74Q49.16 13.33 49.16 12.61L49.16 12.61Q49.16 12.20 48.94 11.83Q48.73 11.46 48.38 11.18Q48.04 10.90 47.62 10.63Q47.20 10.36 46.78 10.07Q46.36 9.79 46.02 9.48Q45.67 9.17 45.46 8.75Q45.24 8.33 45.24 7.84L45.24 7.84Q45.24 6.88 45.93 6.29Q46.63 5.71 47.51 5.71L47.51 5.71Q48.10 5.71 48.64 5.90Q49.18 6.09 49.51 6.46L49.51 6.46L49.28 8.58L48.97 8.53L48.78 6.87Q48.60 6.54 48.18 6.32Q47.76 6.10 47.33 6.10L47.33 6.10Q46.74 6.10 46.32 6.48Q45.91 6.87 45.91 7.52L45.91 7.52Q45.91 7.96 46.13 8.35Q46.35 8.74 46.71 9.03Q47.06 9.32 47.48 9.61Q47.91 9.89 48.33 10.17Q48.76 10.45 49.11 10.75Q49.46 11.05 49.69 11.45Q49.91 11.85 49.91 12.29L49.91 12.29Q49.91 13.28 49.16 13.93Q48.41 14.57 47.16 14.57L47.16 14.57Q46.45 14.57 45.85 14.30Q45.25 14.03 44.91 13.60ZM57.63 13.60L57.63 13.60L57.84 11.66L58.17 11.71L58.36 13.21Q58.58 13.64 59.11 13.89Q59.64 14.14 60.25 14.14L60.25 14.14Q60.93 14.14 61.41 13.74Q61.89 13.33 61.89 12.61L61.89 12.61Q61.89 12.20 61.67 11.83Q61.46 11.46 61.11 11.18Q60.76 10.90 60.34 10.63Q59.92 10.36 59.51 10.07Q59.09 9.79 58.74 9.48Q58.40 9.17 58.18 8.75Q57.97 8.33 57.97 7.84L57.97 7.84Q57.97 6.88 58.66 6.29Q59.36 5.71 60.24 5.71L60.24 5.71Q60.83 5.71 61.37 5.90Q61.91 6.09 62.23 6.46L62.23 6.46L62.01 8.58L61.69 8.53L61.51 6.87Q61.33 6.54 60.91 6.32Q60.49 6.10 60.06 6.10L60.06 6.10Q59.47 6.10 59.05 6.48Q58.64 6.87 58.64 7.52L58.64 7.52Q58.64 7.96 58.86 8.35Q59.08 8.74 59.44 9.03Q59.79 9.32 60.21 9.61Q60.63 9.89 61.06 10.17Q61.49 10.45 61.84 10.75Q62.19 11.05 62.42 11.45Q62.64 11.85 62.64 12.29L62.64 12.29Q62.64 13.28 61.89 13.93Q61.13 14.57 59.89 14.57L59.89 14.57Q59.18 14.57 58.58 14.30Q57.98 14.03 57.63 13.60ZM73.25 11.41L70.46 11.53L70.53 11.12L73.31 11.00L73.25 11.41ZM84.49 14.40L81.07 14.40L81.11 14.11L82.19 13.90L82.19 6.51L81.08 6.36L81.14 6.12Q81.31 6.09 81.76 6.02Q82.21 5.94 82.44 5.91Q82.67 5.88 83.08 5.84Q83.49 5.81 83.90 5.81L83.90 5.81Q84.59 5.81 85.18 5.96Q85.77 6.10 86.23 6.40Q86.69 6.69 86.95 7.18Q87.21 7.66 87.21 8.29L87.21 8.29Q87.21 8.90 86.93 9.43Q86.65 9.97 86.19 10.33Q85.73 10.69 85.13 10.90Q84.53 11.10 83.89 11.10L83.89 11.10Q83.62 11.10 83.55 11.09L83.55 11.09L83.48 10.80L83.85 10.78Q84.51 10.75 85.01 10.55Q85.50 10.36 85.79 10.03Q86.08 9.70 86.23 9.30Q86.37 8.90 86.37 8.43L86.37 8.43Q86.37 7.98 86.20 7.57Q86.03 7.16 85.71 6.83Q85.39 6.50 84.86 6.31Q84.34 6.11 83.69 6.11L83.69 6.11L82.94 6.15L82.94 13.95L84.54 14.08L84.49 14.40ZM101.07 14.40L94.92 14.40L94.95 14.11L96.11 13.90L96.11 6.34L94.93 6.17L94.96 5.90L98.07 5.90L98.04 6.17L96.84 6.32L96.84 14.03L100.46 14.03L100.99 12.09L101.29 12.14L101.07 14.40ZM113.07 6.98L111.70 10.75L114.39 10.75L113.07 6.98ZM111.75 14.40L109.02 14.40L109.05 14.11L110.02 13.90L113.02 5.82L113.38 5.73L116.22 13.95L117.12 14.08L117.07 14.39L114.27 14.39L114.33 14.10L115.47 13.90L114.52 11.13L111.56 11.13L110.55 13.95L111.81 14.08L111.75 14.40ZM124.87 8.09L124.80 5.89L131.87 5.89L131.63 8.16L131.28 8.12L131.17 6.24L128.63 6.24L128.63 13.90L129.84 14.08L129.77 14.40L126.67 14.40L126.70 14.11L127.90 13.90L127.90 6.24L125.47 6.24L125.23 8.15L124.87 8.09ZM140.79 6.36L139.58 6.18L139.62 5.89L145.82 5.89L145.59 8.09L145.26 8.04L145.11 6.24L141.49 6.24L141.49 10.07L143.77 10.07L144.03 9.11L144.42 9.06L144.20 11.72L143.83 11.77L143.71 10.43L141.49 10.43L141.49 13.92L143.17 14.03L143.09 14.40L139.60 14.40L139.62 14.11L140.79 13.90L140.79 6.36ZM154.31 9.75L154.31 9.75Q154.31 11.03 154.67 12.01Q155.03 13.00 155.75 13.57Q156.47 14.14 157.45 14.14L157.45 14.14Q158.02 14.14 158.51 13.92Q159.00 13.70 159.35 13.33Q159.69 12.96 159.94 12.49Q160.18 12.01 160.30 11.50Q160.41 10.99 160.41 10.48L160.41 10.48Q160.41 8.50 159.56 7.29Q158.71 6.07 157.26 6.07L157.26 6.07Q156.68 6.07 156.19 6.28Q155.70 6.49 155.35 6.85Q155.01 7.21 154.77 7.69Q154.53 8.16 154.42 8.69Q154.31 9.21 154.31 9.75ZM153.56 10.16L153.56 10.16Q153.56 8.16 154.65 6.92Q155.75 5.69 157.59 5.69L157.59 5.69Q158.72 5.69 159.54 6.27Q160.36 6.86 160.75 7.84Q161.15 8.83 161.15 10.11L161.15 10.11Q161.15 10.75 161 11.38Q160.85 12.00 160.52 12.58Q160.20 13.17 159.74 13.61Q159.28 14.05 158.60 14.32Q157.92 14.58 157.12 14.58L157.12 14.58Q156.06 14.58 155.24 13.98Q154.42 13.37 153.99 12.37Q153.56 11.37 153.56 10.16ZM170.69 6.18L170.69 10.11L172.25 10.11Q172.93 9.86 173.39 9.28Q173.84 8.70 173.84 8.02L173.84 8.02Q173.84 7.11 173.23 6.63Q172.61 6.15 171.52 6.15L171.52 6.15L170.69 6.18ZM172.07 14.40L168.88 14.40L168.92 14.11L169.99 13.90L169.99 6.51L168.90 6.37L168.96 6.13Q170.78 5.83 171.86 5.83L171.86 5.83Q172.63 5.83 173.24 6.05Q173.84 6.27 174.22 6.73Q174.60 7.19 174.60 7.83L174.60 7.83Q174.60 8.57 174.17 9.14Q173.74 9.72 172.71 10.23L172.71 10.23L172.71 10.23L174.03 12.19Q174.74 13.23 175.09 13.58Q175.43 13.92 175.81 14.05L175.81 14.05L176.14 14.16L176.10 14.42Q175.81 14.52 175.46 14.52L175.46 14.52Q175.18 14.52 174.92 14.40Q174.67 14.28 174.43 14.01Q174.19 13.75 174.00 13.48Q173.82 13.22 173.54 12.77L173.54 12.77L172.16 10.49L170.69 10.49L170.69 13.95L172.14 14.08L172.07 14.40ZM186.63 14.40L183.80 14.40L183.84 14.17L184.98 13.96L185.55 6.36L184.29 6.14L184.34 5.89L186.52 5.89L187.00 7.18L189.15 12.84L191.60 6.88L192.01 5.89L194.24 5.89L194.21 6.14L193.03 6.34L193.41 14.01L194.64 14.12L194.63 14.40L191.47 14.40L191.51 14.17L192.68 13.96L192.29 6.41L189.11 13.99L188.77 14.05L185.98 6.53L185.44 14.01L186.68 14.12L186.63 14.40ZM214.07 6.18L214.07 10.11L215.62 10.11Q216.30 9.86 216.76 9.28Q217.22 8.70 217.22 8.02L217.22 8.02Q217.22 7.11 216.60 6.63Q215.98 6.15 214.89 6.15L214.89 6.15L214.07 6.18ZM215.44 14.40L212.25 14.40L212.30 14.11L213.36 13.90L213.36 6.51L212.27 6.37L212.33 6.13Q214.16 5.83 215.24 5.83L215.24 5.83Q216.00 5.83 216.61 6.05Q217.22 6.27 217.59 6.73Q217.97 7.19 217.97 7.83L217.97 7.83Q217.97 8.57 217.54 9.14Q217.12 9.72 216.08 10.23L216.08 10.23L216.08 10.23L217.40 12.19Q218.11 13.23 218.46 13.58Q218.80 13.92 219.19 14.05L219.19 14.05L219.52 14.16L219.47 14.42Q219.18 14.52 218.84 14.52L218.84 14.52Q218.55 14.52 218.30 14.40Q218.05 14.28 217.80 14.01Q217.56 13.75 217.38 13.48Q217.19 13.22 216.92 12.77L216.92 12.77L215.53 10.49L214.07 10.49L214.07 13.95L215.51 14.08L215.44 14.40ZM227.21 13.60L227.21 13.60L227.42 11.66L227.75 11.71L227.94 13.21Q228.16 13.64 228.69 13.89Q229.22 14.14 229.82 14.14L229.82 14.14Q230.51 14.14 230.99 13.74Q231.46 13.33 231.46 12.61L231.46 12.61Q231.46 12.20 231.25 11.83Q231.03 11.46 230.69 11.18Q230.34 10.90 229.92 10.63Q229.50 10.36 229.09 10.07Q228.67 9.79 228.32 9.48Q227.98 9.17 227.76 8.75Q227.55 8.33 227.55 7.84L227.55 7.84Q227.55 6.88 228.24 6.29Q228.94 5.71 229.82 5.71L229.82 5.71Q230.41 5.71 230.95 5.90Q231.49 6.09 231.81 6.46L231.81 6.46L231.59 8.58L231.27 8.53L231.09 6.87Q230.90 6.54 230.49 6.32Q230.07 6.10 229.64 6.10L229.64 6.10Q229.04 6.10 228.63 6.48Q228.22 6.87 228.22 7.52L228.22 7.52Q228.22 7.96 228.44 8.35Q228.66 8.74 229.01 9.03Q229.37 9.32 229.79 9.61Q230.21 9.89 230.64 10.17Q231.07 10.45 231.42 10.75Q231.77 11.05 231.99 11.45Q232.22 11.85 232.22 12.29L232.22 12.29Q232.22 13.28 231.46 13.93Q230.71 14.57 229.47 14.57L229.47 14.57Q228.76 14.57 228.16 14.30Q227.55 14.03 227.21 13.60ZM239.94 13.60L239.94 13.60L240.15 11.66L240.47 11.71L240.67 13.21Q240.89 13.64 241.42 13.89Q241.95 14.14 242.55 14.14L242.55 14.14Q243.24 14.14 243.71 13.74Q244.19 13.33 244.19 12.61L244.19 12.61Q244.19 12.20 243.98 11.83Q243.76 11.46 243.42 11.18Q243.07 10.90 242.65 10.63Q242.23 10.36 241.81 10.07Q241.40 9.79 241.05 9.48Q240.71 9.17 240.49 8.75Q240.28 8.33 240.28 7.84L240.28 7.84Q240.28 6.88 240.97 6.29Q241.66 5.71 242.55 5.71L242.55 5.71Q243.13 5.71 243.67 5.90Q244.21 6.09 244.54 6.46L244.54 6.46L244.32 8.58L244.00 8.53L243.82 6.87Q243.63 6.54 243.22 6.32Q242.80 6.10 242.37 6.10L242.37 6.10Q241.77 6.10 241.36 6.48Q240.95 6.87 240.95 7.52L240.95 7.52Q240.95 7.96 241.17 8.35Q241.39 8.74 241.74 9.03Q242.09 9.32 242.52 9.61Q242.94 9.89 243.37 10.17Q243.80 10.45 244.15 10.75Q244.50 11.05 244.72 11.45Q244.95 11.85 244.95 12.29L244.95 12.29Q244.95 13.28 244.19 13.93Q243.44 14.57 242.20 14.57L242.20 14.57Q241.49 14.57 240.88 14.30Q240.28 14.03 239.94 13.60ZM264.39 6.18L264.39 10.11L265.95 10.11Q266.63 9.86 267.09 9.28Q267.54 8.70 267.54 8.02L267.54 8.02Q267.54 7.11 266.93 6.63Q266.31 6.15 265.22 6.15L265.22 6.15L264.39 6.18ZM265.77 14.40L262.58 14.40L262.62 14.11L263.69 13.90L263.69 6.51L262.60 6.37L262.66 6.13Q264.48 5.83 265.56 5.83L265.56 5.83Q266.33 5.83 266.94 6.05Q267.54 6.27 267.92 6.73Q268.30 7.19 268.30 7.83L268.30 7.83Q268.30 8.57 267.87 9.14Q267.44 9.72 266.41 10.23L266.41 10.23L266.41 10.23L267.73 12.19Q268.44 13.23 268.79 13.58Q269.13 13.92 269.51 14.05L269.51 14.05L269.84 14.16L269.80 14.42Q269.51 14.52 269.17 14.52L269.17 14.52Q268.88 14.52 268.63 14.40Q268.37 14.28 268.13 14.01Q267.89 13.75 267.70 13.48Q267.52 13.22 267.24 12.77L267.24 12.77L265.86 10.49L264.39 10.49L264.39 13.95L265.84 14.08L265.77 14.40ZM278.76 6.36L277.53 6.18L277.58 5.89L283.77 5.89L283.56 8.07L283.25 8.03L283.12 6.24L279.47 6.24L279.47 9.89L281.76 9.89L282.01 8.94L282.38 8.89L282.15 11.55L281.80 11.61L281.70 10.26L279.47 10.26L279.47 14.03L283.31 14.03L283.81 12.19L284.09 12.26L283.89 14.40L277.55 14.40L277.59 14.11L278.76 13.90L278.76 6.36ZM295.87 6.98L294.50 10.75L297.19 10.75L295.87 6.98ZM294.55 14.40L291.82 14.40L291.85 14.11L292.82 13.90L295.82 5.82L296.18 5.73L299.02 13.95L299.92 14.08L299.87 14.39L297.07 14.39L297.13 14.10L298.27 13.90L297.32 11.13L294.36 11.13L293.35 13.95L294.61 14.08L294.55 14.40ZM309.50 6.19L309.50 14.03L310.73 14.03Q312.54 14.03 313.64 12.95Q314.73 11.87 314.73 10.12L314.73 10.12Q314.73 8.20 313.68 7.18Q312.63 6.16 310.69 6.16L310.69 6.16Q309.70 6.16 309.50 6.19L309.50 6.19ZM310.55 14.40L307.60 14.40L307.66 14.11L308.81 13.90L308.81 6.51L307.64 6.36L307.71 6.12Q309.79 5.79 310.95 5.79L310.95 5.79Q311.91 5.79 312.69 6.03Q313.46 6.26 313.97 6.66Q314.49 7.05 314.83 7.59Q315.17 8.13 315.32 8.71Q315.47 9.29 315.47 9.92L315.47 9.92Q315.47 10.64 315.30 11.28Q315.13 11.93 314.75 12.50Q314.36 13.08 313.80 13.49Q313.24 13.91 312.41 14.15Q311.58 14.40 310.55 14.40L310.55 14.40ZM324.41 6.36L323.19 6.18L323.24 5.89L329.43 5.89L329.22 8.07L328.90 8.03L328.77 6.24L325.12 6.24L325.12 9.89L327.41 9.89L327.67 8.94L328.04 8.89L327.81 11.55L327.46 11.61L327.35 10.26L325.12 10.26L325.12 14.03L328.97 14.03L329.47 12.19L329.75 12.26L329.55 14.40L323.21 14.40L323.25 14.11L324.41 13.90L324.41 6.36ZM339.28 6.18L339.28 10.11L340.83 10.11Q341.52 9.86 341.97 9.28Q342.43 8.70 342.43 8.02L342.43 8.02Q342.43 7.11 341.81 6.63Q341.20 6.15 340.11 6.15L340.11 6.15L339.28 6.18ZM340.66 14.40L337.46 14.40L337.51 14.11L338.58 13.90L338.58 6.51L337.48 6.37L337.54 6.13Q339.37 5.83 340.45 5.83L340.45 5.83Q341.22 5.83 341.82 6.05Q342.43 6.27 342.81 6.73Q343.18 7.19 343.18 7.83L343.18 7.83Q343.18 8.57 342.76 9.14Q342.33 9.72 341.30 10.23L341.30 10.23L341.30 10.23L342.62 12.19Q343.33 13.23 343.67 13.58Q344.02 13.92 344.40 14.05L344.40 14.05L344.73 14.16L344.69 14.42Q344.39 14.52 344.05 14.52L344.05 14.52Q343.77 14.52 343.51 14.40Q343.26 14.28 343.02 14.01Q342.77 13.75 342.59 13.48Q342.41 13.22 342.13 12.77L342.13 12.77L340.74 10.49L339.28 10.49L339.28 13.95L340.72 14.08L340.66 14.40Z"></path></g></svg>