<svg data-v-423bf9ae="" xmlns="http://www.w3.org/2000/svg" viewBox="0 0 332.8471024600691 60" class="font"><!----><!----><!----><g data-v-423bf9ae="" id="d9dd500f-0606-4663-bb96-16713fc3495f" fill="black" transform="matrix(5.272407679843658,0,0,5.272407679843658,-2.2144091363694542,-18.189806031612875)"><path d="M0.42 4.78L0.42 4.78L0.42 4.35Q0.42 4.14 0.63 4.14L0.63 4.14L7.64 4.14Q7.83 4.14 7.91 4.07L7.91 4.07L7.99 4.00Q8.07 3.95 8.11 3.95L8.11 3.95Q8.22 3.95 8.29 4.07L8.29 4.07L9.40 5.97Q9.44 6.04 9.44 6.10L9.44 6.10Q9.44 6.19 9.32 6.27L9.32 6.27L8.74 6.58Q8.67 6.62 8.61 6.62L8.61 6.62Q8.52 6.62 8.44 6.51L8.44 6.51L8.39 6.43Q7.65 5.14 5.89 5.14L5.89 5.14L3.81 5.14L3.81 8.56L5.12 8.56Q6.41 8.56 6.45 7.62L6.45 7.62L6.45 7.53Q6.45 7.31 6.66 7.31L6.66 7.31L7.08 7.31Q7.29 7.31 7.29 7.53L7.29 7.53L7.29 10.71Q7.29 10.92 7.08 10.92L7.08 10.92L6.66 10.92Q6.45 10.92 6.45 10.71L6.45 10.71L6.45 10.62Q6.41 9.68 5.12 9.68L5.12 9.68L3.90 9.68L3.90 12.47Q3.90 13.75 4.84 13.80L4.84 13.80L4.94 13.80Q5.15 13.80 5.15 14.01L5.15 14.01L5.15 14.43Q5.15 14.64 4.94 14.64L4.94 14.64L0.63 14.64Q0.42 14.64 0.42 14.43L0.42 14.43L0.42 14.01Q0.42 13.80 0.63 13.80L0.63 13.80L0.72 13.80Q1.66 13.75 1.66 12.47L1.66 12.47L1.66 6.32Q1.66 4.98 0.64 4.98L0.64 4.98L0.63 4.98Q0.42 4.98 0.42 4.78ZM9.01 11.08L9.01 11.08Q9.01 10.33 9.20 9.71Q9.39 9.10 9.71 8.69Q10.03 8.29 10.46 8.01Q10.90 7.73 11.36 7.61Q11.83 7.49 12.35 7.49L12.35 7.49Q12.88 7.49 13.35 7.67Q13.83 7.85 14.16 8.13Q14.50 8.42 14.74 8.78Q14.98 9.14 15.10 9.50Q15.22 9.86 15.22 10.19L15.22 10.19Q15.22 10.31 15.11 10.36L15.11 10.36L11.05 12.14Q11.31 12.79 11.85 13.22Q12.39 13.64 13.15 13.64L13.15 13.64Q13.62 13.64 14.10 13.38Q14.57 13.13 14.93 12.61L14.93 12.61Q14.97 12.55 15.05 12.55L15.05 12.55Q15.14 12.55 15.61 12.82L15.61 12.82Q15.66 12.86 15.66 12.93L15.66 12.93Q15.66 13.02 15.57 13.18L15.57 13.18Q14.69 14.81 12.77 14.81L12.77 14.81Q11.64 14.81 10.77 14.30Q9.91 13.79 9.46 12.94Q9.01 12.10 9.01 11.08ZM11.09 9.05Q10.75 9.50 10.75 10.20Q10.75 10.90 10.88 11.27L10.88 11.27L13.13 10.13Q13.13 9.47 12.81 9.03Q12.49 8.59 12.00 8.59L12.00 8.59Q11.44 8.59 11.09 9.05ZM16.13 11.08L16.13 11.08Q16.13 10.33 16.32 9.71Q16.52 9.10 16.83 8.69Q17.15 8.29 17.59 8.01Q18.02 7.73 18.49 7.61Q18.96 7.49 19.47 7.49L19.47 7.49Q20.00 7.49 20.48 7.67Q20.95 7.85 21.29 8.13Q21.62 8.42 21.86 8.78Q22.11 9.14 22.23 9.50Q22.35 9.86 22.35 10.19L22.35 10.19Q22.35 10.31 22.23 10.36L22.23 10.36L18.17 12.14Q18.44 12.79 18.97 13.22Q19.51 13.64 20.27 13.64L20.27 13.64Q20.74 13.64 21.22 13.38Q21.70 13.13 22.05 12.61L22.05 12.61Q22.09 12.55 22.17 12.55L22.17 12.55Q22.26 12.55 22.73 12.82L22.73 12.82Q22.78 12.86 22.78 12.93L22.78 12.93Q22.78 13.02 22.70 13.18L22.70 13.18Q21.81 14.81 19.89 14.81L19.89 14.81Q18.76 14.81 17.90 14.30Q17.03 13.79 16.58 12.94Q16.13 12.10 16.13 11.08ZM18.21 9.05Q17.87 9.50 17.87 10.20Q17.87 10.90 18.00 11.27L18.00 11.27L20.25 10.13Q20.25 9.47 19.93 9.03Q19.61 8.59 19.13 8.59L19.13 8.59Q18.56 8.59 18.21 9.05ZM23.26 11.13L23.26 11.13Q23.26 10.19 23.53 9.47Q23.80 8.75 24.26 8.32Q24.73 7.90 25.30 7.68Q25.87 7.46 26.53 7.46L26.53 7.46Q27.60 7.46 28.35 8.11L28.35 8.11L28.35 7.23Q28.35 6.88 28.32 6.66Q28.30 6.43 28.22 6.18Q28.14 5.93 27.97 5.78Q27.79 5.64 27.51 5.61L27.51 5.61Q27.34 5.59 27.35 5.43L27.35 5.43L27.35 4.96Q27.35 4.87 27.40 4.84Q27.44 4.81 27.56 4.77L27.56 4.77Q29.11 4.25 30.19 3.47L30.19 3.47Q30.23 3.45 30.25 3.45L30.25 3.45L30.28 3.45Q30.30 3.45 30.30 3.47L30.30 3.47L30.30 12.05Q30.30 12.34 30.34 12.54Q30.37 12.75 30.46 12.95Q30.54 13.15 30.71 13.27Q30.88 13.39 31.12 13.42L31.12 13.42Q31.30 13.44 31.29 13.60L31.29 13.60L31.29 14.08Q31.29 14.26 31.09 14.26L31.09 14.26Q30.45 14.26 29.93 14.35Q29.41 14.44 29.18 14.53Q28.95 14.61 28.51 14.80L28.51 14.80Q28.46 14.83 28.39 14.83L28.39 14.83L28.36 14.83Q28.33 14.83 28.34 14.78L28.34 14.78L28.50 13.54Q28.42 13.72 28.29 13.90Q28.16 14.09 27.92 14.31Q27.68 14.54 27.27 14.68Q26.87 14.83 26.36 14.83L26.36 14.83Q25.96 14.83 25.55 14.71Q25.14 14.59 24.72 14.30Q24.30 14.01 23.98 13.60Q23.66 13.19 23.46 12.55Q23.26 11.91 23.26 11.13ZM25.06 10.68L25.06 10.68Q25.06 12.01 25.59 12.80Q26.13 13.59 27.00 13.59L27.00 13.59Q27.29 13.59 27.53 13.47Q27.77 13.34 27.92 13.17Q28.06 13.00 28.16 12.83Q28.27 12.65 28.31 12.53L28.31 12.53L28.34 12.41L28.34 10.11Q28.26 9.42 27.86 8.98Q27.45 8.53 26.78 8.53L26.78 8.53Q25.06 8.53 25.06 10.68ZM31.57 4.74L31.57 4.74L31.57 4.31Q31.57 4.11 31.78 4.11L31.78 4.11L36.07 4.11Q36.29 4.11 36.29 4.31L36.29 4.31L36.29 4.74Q36.29 4.95 36.07 4.95L36.07 4.95Q35.64 4.95 35.31 5.23Q34.99 5.50 34.99 5.92L34.99 5.92Q34.99 6.12 35.05 6.28L35.05 6.28L37.35 12.67L39.25 6.91L39.02 6.28Q38.75 5.54 38.63 5.35L38.63 5.35Q38.38 4.95 37.99 4.95L37.99 4.95Q37.78 4.95 37.78 4.74L37.78 4.74L37.78 4.31Q37.78 4.11 37.99 4.11L37.99 4.11L42.28 4.11Q42.49 4.11 42.49 4.31L42.49 4.31L42.49 4.74Q42.49 4.95 42.28 4.95L42.28 4.95L41.92 4.95Q41.64 4.95 41.40 5.17Q41.15 5.39 41.15 5.76L41.15 5.76Q41.15 5.93 41.24 6.20L41.24 6.20L43.56 12.67L45.67 6.28Q45.73 6.10 45.73 5.93L45.73 5.93Q45.73 5.51 45.41 5.23Q45.09 4.95 44.65 4.95L44.65 4.95Q44.43 4.95 44.43 4.74L44.43 4.74L44.43 4.31Q44.43 4.11 44.65 4.11L44.65 4.11L48.13 4.11Q48.34 4.11 48.34 4.31L48.34 4.31L48.34 4.74Q48.34 4.95 48.13 4.95Q47.91 4.95 47.76 5.02Q47.61 5.10 47.49 5.31Q47.36 5.53 47.30 5.66Q47.25 5.79 47.13 6.15L47.13 6.15Q47.09 6.23 47.08 6.28L47.08 6.28L44.20 14.47Q44.14 14.64 43.96 14.64L43.96 14.64L42.28 14.64Q42.10 14.64 42.04 14.47L42.04 14.47L39.97 8.85L37.99 14.47Q37.93 14.64 37.75 14.64L37.75 14.64L36.07 14.64Q35.89 14.64 35.83 14.47L35.83 14.47L32.81 6.28Q32.54 5.54 32.42 5.35L32.42 5.35Q32.18 4.95 31.78 4.95L31.78 4.95Q31.57 4.95 31.57 4.74ZM47.27 11.08L47.27 11.08Q47.27 10.33 47.46 9.71Q47.65 9.10 47.97 8.69Q48.29 8.29 48.72 8.01Q49.16 7.73 49.63 7.61Q50.09 7.49 50.61 7.49L50.61 7.49Q51.14 7.49 51.61 7.67Q52.09 7.85 52.42 8.13Q52.76 8.42 53.00 8.78Q53.25 9.14 53.36 9.50Q53.48 9.86 53.48 10.19L53.48 10.19Q53.48 10.31 53.37 10.36L53.37 10.36L49.31 12.14Q49.57 12.79 50.11 13.22Q50.65 13.64 51.41 13.64L51.41 13.64Q51.88 13.64 52.36 13.38Q52.83 13.13 53.19 12.61L53.19 12.61Q53.23 12.55 53.31 12.55L53.31 12.55Q53.40 12.55 53.87 12.82L53.87 12.82Q53.92 12.86 53.92 12.93L53.92 12.93Q53.92 13.02 53.83 13.18L53.83 13.18Q52.95 14.81 51.03 14.81L51.03 14.81Q49.90 14.81 49.03 14.30Q48.17 13.79 47.72 12.94Q47.27 12.10 47.27 11.08ZM49.35 9.05Q49.01 9.50 49.01 10.20Q49.01 10.90 49.14 11.27L49.14 11.27L51.39 10.13Q51.39 9.47 51.07 9.03Q50.75 8.59 50.26 8.59L50.26 8.59Q49.70 8.59 49.35 9.05ZM54.27 14.43L54.27 14.43L54.27 14.01Q54.27 13.80 54.48 13.80L54.48 13.80Q54.97 13.79 55.24 13.43L55.24 13.43Q55.49 13.07 55.49 12.52L55.49 12.52Q55.49 12.50 55.49 12.47L55.49 12.47L55.49 7.23Q55.49 6.88 55.47 6.66Q55.45 6.43 55.37 6.18Q55.30 5.93 55.12 5.78Q54.94 5.64 54.67 5.61L54.67 5.61Q54.49 5.59 54.50 5.43L54.50 5.43L54.50 4.96Q54.50 4.87 54.55 4.84Q54.59 4.81 54.70 4.77L54.70 4.77Q56.26 4.25 57.33 3.47L57.33 3.47Q57.37 3.45 57.39 3.45L57.39 3.45L57.43 3.45Q57.45 3.45 57.46 3.47L57.46 3.47L57.46 12.47Q57.46 13.06 57.73 13.43Q58.00 13.80 58.49 13.80L58.49 13.80Q58.70 13.80 58.70 14.01L58.70 14.01L58.70 14.43Q58.70 14.64 58.49 14.64L58.49 14.64L54.48 14.64Q54.27 14.64 54.27 14.43ZM59.12 14.43L59.12 14.43L59.12 14.01Q59.12 13.80 59.33 13.80L59.33 13.80Q59.83 13.79 60.09 13.43L60.09 13.43Q60.35 13.07 60.35 12.52L60.35 12.52Q60.35 12.50 60.35 12.47L60.35 12.47L60.35 7.23Q60.35 6.88 60.32 6.66Q60.30 6.43 60.22 6.18Q60.15 5.93 59.97 5.78Q59.79 5.64 59.52 5.61L59.52 5.61Q59.34 5.59 59.36 5.43L59.36 5.43L59.36 4.96Q59.36 4.87 59.40 4.84Q59.45 4.81 59.55 4.77L59.55 4.77Q61.11 4.25 62.19 3.47L62.19 3.47Q62.23 3.45 62.25 3.45L62.25 3.45L62.28 3.45Q62.30 3.45 62.32 3.47L62.32 3.47L62.32 12.47Q62.32 13.06 62.58 13.43Q62.85 13.80 63.34 13.80L63.34 13.80Q63.55 13.80 63.55 14.01L63.55 14.01L63.55 14.43Q63.55 14.64 63.34 14.64L63.34 14.64L59.33 14.64Q59.12 14.64 59.12 14.43Z"></path></g><!----><!----></svg>